<svg width="19" height="16" viewBox="0 0 19 16" fill="none" xmlns="http://www.w3.org/2000/svg">
<path d="M16.457 4.68213C16.457 4.854 16.457 5.01156 16.457 5.15479C16.457 6.44385 16.2135 7.71859 15.7266 8.979C15.2682 10.2108 14.5951 11.3423 13.707 12.3735C12.8477 13.4048 11.7161 14.2498 10.3125 14.9087C8.9375 15.5389 7.41927 15.854 5.75781 15.854C3.66667 15.854 1.7474 15.2954 0 14.1782C0.286458 14.2069 0.58724 14.2212 0.902344 14.2212C2.64974 14.2212 4.21094 13.6912 5.58594 12.6313C4.75521 12.6027 4.01042 12.3449 3.35156 11.8579C2.72135 11.3709 2.29167 10.755 2.0625 10.0103C2.29167 10.0675 2.52083 10.0962 2.75 10.0962C3.09375 10.0962 3.42318 10.0389 3.73828 9.92432C2.87891 9.75244 2.16276 9.32275 1.58984 8.63525C1.01693 7.94775 0.730469 7.15999 0.730469 6.27197C0.730469 6.24333 0.730469 6.229 0.730469 6.229C1.27474 6.51546 1.84766 6.67301 2.44922 6.70166C1.33203 5.92822 0.773438 4.88265 0.773438 3.56494C0.773438 2.87744 0.945312 2.24723 1.28906 1.67432C2.23438 2.82015 3.36589 3.73682 4.68359 4.42432C6.02995 5.11182 7.47656 5.49854 9.02344 5.58447C8.96615 5.29801 8.9375 5.01156 8.9375 4.7251C8.9375 3.69385 9.29557 2.82015 10.0117 2.104C10.7565 1.35921 11.6445 0.986816 12.6758 0.986816C13.7643 0.986816 14.681 1.37354 15.4258 2.14697C16.2852 1.9751 17.0872 1.67432 17.832 1.24463C17.5456 2.13265 16.987 2.82015 16.1562 3.30713C16.9297 3.22119 17.6602 3.03499 18.3477 2.74854C17.832 3.49333 17.2018 4.13786 16.457 4.68213Z" fill="#59A6C0"/>
</svg>
