<svg width="300" height="90" viewBox="0 0 300 90" fill="none" xmlns="http://www.w3.org/2000/svg">
<g clip-path="url(#clip0_4044_5425)">
<path d="M118.835 48.2289C118.12 49.5572 116.996 50.6812 115.361 51.4986C113.828 52.3161 111.887 52.7248 109.639 52.7248H105.45V62.7384H98.6035V34.7411H109.639C111.887 34.7411 113.726 35.1499 115.259 35.8651C116.792 36.6826 117.916 37.7044 118.733 39.0327C119.55 40.361 119.857 41.9959 119.857 43.733C119.959 45.3678 119.55 46.7984 118.835 48.2289ZM112.091 46.2875C112.704 45.6744 113.011 44.8569 113.011 43.733C113.011 42.609 112.704 41.7915 112.091 41.1785C111.478 40.5654 110.456 40.2589 109.128 40.2589H105.45V47.3093H109.128C110.456 47.2071 111.376 46.9005 112.091 46.2875Z" fill="#E73137"/>
<path d="M133.345 41.2807C134.571 40.5654 135.899 40.2589 137.33 40.2589V47.5136H135.49C133.753 47.5136 132.527 47.9223 131.71 48.6376C130.892 49.3529 130.484 50.6812 130.484 52.5204V62.8406H123.638V40.4632H130.484V44.1417C131.097 42.9155 132.119 41.9959 133.345 41.2807Z" fill="#E73137"/>
<path d="M144.789 61.6144C143.052 60.6948 141.723 59.3665 140.702 57.6294C139.68 55.8924 139.169 53.8488 139.169 51.6008C139.169 49.3529 139.68 47.3093 140.702 45.5722C141.723 43.8351 143.052 42.5068 144.891 41.5872C146.628 40.6676 148.569 40.1567 150.817 40.1567C152.963 40.1567 155.007 40.6676 156.744 41.5872C158.481 42.5068 159.911 43.8351 160.933 45.5722C161.955 47.3093 162.466 49.3529 162.466 51.6008C162.466 53.8488 161.955 55.8924 160.933 57.6294C159.911 59.3665 158.481 60.6948 156.744 61.6144C155.007 62.5341 152.963 63.045 150.817 63.045C148.467 63.045 146.526 62.5341 144.789 61.6144ZM153.985 55.688C154.905 54.7684 155.313 53.3379 155.313 51.6008C155.313 49.8638 154.905 48.4332 153.985 47.5136C153.065 46.594 152.044 46.0831 150.715 46.0831C149.387 46.0831 148.263 46.594 147.446 47.5136C146.526 48.4332 146.117 49.8638 146.117 51.6008C146.117 53.3379 146.526 54.7684 147.446 55.688C148.365 56.6076 149.387 57.1185 150.715 57.1185C152.044 57.1185 153.065 56.7098 153.985 55.688Z" fill="#E73137"/>
<path d="M171.049 38.624V46.7984H180.654V50.4768H171.049V58.9578H181.778V62.6362H166.451V34.9455H181.778V38.624H171.049V38.624Z" fill="#575756"/>
<path d="M203.134 41.485C204.462 42.2003 205.586 43.2221 206.301 44.6526C207.119 46.0831 207.425 47.718 207.425 49.7616V62.7384H202.929V50.4768C202.929 48.5354 202.418 47.0027 201.499 45.9809C200.477 44.9591 199.149 44.4482 197.514 44.4482C195.777 44.4482 194.448 44.9591 193.426 45.9809C192.405 47.0027 191.894 48.5354 191.894 50.4768V62.7384H187.296V40.7698H191.894V43.3242C192.609 42.4046 193.631 41.6894 194.755 41.1785C195.879 40.6676 197.105 40.4632 198.433 40.4632C200.17 40.361 201.805 40.7698 203.134 41.485Z" fill="#575756"/>
<path d="M233.277 53.4401H216.519C216.621 55.1771 217.337 56.6076 218.46 57.6294C219.584 58.6512 221.117 59.2643 222.752 59.2643C225.204 59.2643 226.941 58.2425 227.963 56.1989H232.868C232.153 58.2425 231.029 59.8774 229.292 61.2057C227.554 62.5341 225.409 63.1471 222.854 63.1471C220.708 63.1471 218.869 62.6362 217.234 61.7166C215.599 60.797 214.271 59.4687 213.351 57.7316C212.432 55.9945 211.921 54.0531 211.921 51.8052C211.921 49.5572 212.33 47.5136 213.249 45.8787C214.169 44.1417 215.497 42.8133 217.132 41.8937C218.767 40.9741 220.708 40.4632 222.854 40.4632C224.898 40.4632 226.737 40.8719 228.372 41.7916C230.007 42.7112 231.233 43.9373 232.153 45.5722C233.072 47.2071 233.481 49.0463 233.481 51.1921C233.379 52.0095 233.379 52.7248 233.277 53.4401ZM228.678 49.7616C228.678 48.1267 228.065 46.6962 226.839 45.7766C225.715 44.7548 224.183 44.2439 222.445 44.2439C220.913 44.2439 219.584 44.7548 218.46 45.7766C217.337 46.7984 216.723 48.1267 216.417 49.8638H228.678V49.7616Z" fill="#575756"/>
<path d="M245.129 41.2807C246.253 40.6676 247.582 40.361 249.012 40.361V45.0613H247.888C246.151 45.0613 244.721 45.47 243.801 46.3896C242.881 47.3093 242.473 48.842 242.473 51.0899V62.6362H237.875V40.7698H242.473V43.9373C243.086 42.8134 244.005 41.9959 245.129 41.2807Z" fill="#575756"/>
<path d="M266.587 41.3828C267.916 42.0981 268.937 42.9155 269.653 43.9373V40.7698H274.251V63.1471C274.251 65.1907 273.842 66.9278 273.025 68.5627C272.207 70.0954 270.981 71.4237 269.346 72.3433C267.711 73.2629 265.77 73.6717 263.624 73.6717C260.661 73.6717 258.208 72.9564 256.165 71.6281C254.223 70.1975 253.099 68.3583 252.793 65.906H257.289C257.595 67.03 258.413 67.9496 259.537 68.6648C260.661 69.3801 261.989 69.6866 263.624 69.6866C265.463 69.6866 266.894 69.1757 268.12 68.0518C269.244 66.9278 269.857 65.2929 269.857 63.1471V59.4687C269.04 60.4905 268.018 61.4101 266.689 62.1253C265.361 62.8406 263.828 63.1471 262.193 63.1471C260.252 63.1471 258.515 62.6362 256.982 61.7166C255.45 60.797 254.121 59.3665 253.202 57.6294C252.282 55.8924 251.873 53.9509 251.873 51.703C251.873 49.455 252.282 47.5136 253.202 45.8787C254.121 44.1417 255.347 42.8133 256.982 41.8937C258.515 40.9741 260.354 40.4632 262.193 40.4632C263.726 40.361 265.259 40.7698 266.587 41.3828ZM268.733 47.718C268.12 46.594 267.302 45.7766 266.281 45.1635C265.259 44.5504 264.135 44.2439 263.011 44.2439C261.887 44.2439 260.763 44.5504 259.741 45.0613C258.719 45.6744 257.902 46.4918 257.289 47.6158C256.676 48.7398 256.369 50.0681 256.369 51.4986C256.369 53.0313 256.676 54.3597 257.289 55.4836C257.902 56.6076 258.719 57.5272 259.741 58.1403C260.763 58.7534 261.887 59.0599 263.011 59.0599C264.135 59.0599 265.259 58.7534 266.281 58.1403C267.302 57.5272 268.12 56.7098 268.733 55.5858C269.346 54.4619 269.653 53.1335 269.653 51.6008C269.653 50.1703 269.346 48.842 268.733 47.718Z" fill="#575756"/>
<path d="M300 40.7698L286.512 73.0586H281.812L286.308 62.3297L277.623 40.6676H282.732L288.965 57.4251L295.402 40.6676H300V40.7698Z" fill="#575756"/>
<path d="M39.8502 4.08719L4.08722 28.6104" stroke="#E66559" stroke-width="8" stroke-miterlimit="10" stroke-linecap="round"/>
<path d="M73.5695 28.6104L39.8502 4.08719" stroke="#575756" stroke-width="8" stroke-miterlimit="10" stroke-linecap="round"/>
<path d="M39.8502 85.8311L4.08722 62.3297" stroke="#CFCDCC" stroke-width="8" stroke-miterlimit="10" stroke-linecap="round"/>
<path d="M73.5695 62.3297L39.8502 85.8311" stroke="#E73137" stroke-width="8" stroke-miterlimit="10" stroke-linecap="round"/>
<path d="M4.08722 28.6104V62.3297" stroke="#59A6C0" stroke-width="8" stroke-miterlimit="10" stroke-linecap="round"/>
<path d="M73.5695 28.6104V62.3297" stroke="#3EA397" stroke-width="8" stroke-miterlimit="10" stroke-linecap="round"/>
</g>
<defs>
<clipPath id="clip0_4044_5425">
<rect width="300" height="89.9183" fill="white"/>
</clipPath>
</defs>
</svg>
