<svg width="19" height="19" viewBox="0 0 19 19" fill="none" xmlns="http://www.w3.org/2000/svg">
<path d="M14.7031 11.0532C14.7031 10.423 14.5885 9.96468 14.3594 9.67822C14.1302 9.36312 13.7005 9.20557 13.0703 9.20557C12.2969 9.20557 11.7526 9.43473 11.4375 9.89307C11.1224 10.3514 10.9648 10.9959 10.9648 11.8267V18.1001C10.9648 18.2433 10.9219 18.3579 10.8359 18.4438C10.75 18.5298 10.6354 18.5728 10.4922 18.5728H7.22656C7.11198 18.5728 6.9974 18.5298 6.88281 18.4438C6.79688 18.3579 6.75391 18.2433 6.75391 18.1001V6.49854C6.75391 6.38395 6.79688 6.28369 6.88281 6.19775C6.9974 6.08317 7.11198 6.02588 7.22656 6.02588H10.4062C10.5208 6.02588 10.6068 6.05452 10.6641 6.11182C10.75 6.16911 10.8073 6.25505 10.8359 6.36963C10.8359 6.48421 10.8359 6.55583 10.8359 6.58447C10.8646 6.64176 10.8789 6.74202 10.8789 6.88525C11.681 6.11182 12.7695 5.7251 14.1445 5.7251C15.6628 5.7251 16.8516 6.11182 17.7109 6.88525C18.5703 7.65869 19 8.7902 19 10.2798V18.1001C19 18.2433 18.9427 18.3579 18.8281 18.4438C18.7422 18.5298 18.6419 18.5728 18.5273 18.5728H15.1758C15.0612 18.5728 14.9466 18.5298 14.832 18.4438C14.7461 18.3579 14.7031 18.2433 14.7031 18.1001V11.0532ZM5.07812 2.50244C5.07812 3.104 4.86328 3.63395 4.43359 4.09229C4.00391 4.52197 3.47396 4.73682 2.84375 4.73682C2.24219 4.73682 1.72656 4.52197 1.29688 4.09229C0.867188 3.63395 0.652344 3.104 0.652344 2.50244C0.652344 1.87223 0.867188 1.34229 1.29688 0.912598C1.72656 0.48291 2.24219 0.268066 2.84375 0.268066C3.47396 0.268066 4.00391 0.48291 4.43359 0.912598C4.86328 1.34229 5.07812 1.87223 5.07812 2.50244ZM4.99219 6.49854V18.1001C4.99219 18.2433 4.9349 18.3579 4.82031 18.4438C4.73438 18.5298 4.63411 18.5728 4.51953 18.5728H1.25391C1.11068 18.5728 0.996094 18.5298 0.910156 18.4438C0.824219 18.3579 0.78125 18.2433 0.78125 18.1001V6.49854C0.78125 6.38395 0.824219 6.28369 0.910156 6.19775C0.996094 6.08317 1.11068 6.02588 1.25391 6.02588H4.51953C4.63411 6.02588 4.73438 6.08317 4.82031 6.19775C4.9349 6.28369 4.99219 6.38395 4.99219 6.49854Z" fill="#59A6C0"/>
</svg>
